<svg width="640" height="640" xmlns="http://www.w3.org/2000/svg" enable-background="new 0 0 512 512" version="1.1">

 <g>
  <title>Layer 1</title>
  <g id="svg_1">
   <g id="svg_2">
    <path id="svg_3" d="m243.18149,474.43185l-77.3,-77.4l272.5,-272.9l77.3,77.4l-272.5,272.9zm-96,-38.3l56.9,57l-79.2,22.3l22.3,-79.3zm411.8,-249l-106.2,-106.4c-7.7,-7.7 -21.2,-7.7 -28.9,0l-301.3,301.8c-2.5,2.5 -4.3,5.5 -5.2,8.9l-41.6,148c-2,7.1 0,14.8 5.2,20c3.9,3.9 11.7,6.7 20,5.2l147.8,-41.7c3.4,-0.9 6.4,-2.7 8.9,-5.2l301.3,-301.7c8,-8 8,-20.9 0,-28.9z"/>
   </g>
  </g>
 </g>
</svg>